# xmcd
#
# Track frame offsets: 
#        150
#        12452
#        34912
#        51349
#        66487
#        84603
#        98177
#        111126
#        125412
#        141721
#        155389
#        169513
#        183552
#        200799
#
# Disc length: 2904 seconds
#
# Revision: 0
# Processed by: cddbd v1.5.1PL2 Copyright (c) Steve Scherf et al.
# Submitted via: ExactAudioCopy v0.95a5
#
DISCID=d20b560e
DTITLE=Mr Boogie Woogie and The Firesweep Bluesband - Boogie Trap
DYEAR=1995
DGENRE=Blues
TTITLE0=Don't Boogie Woogie
TTITLE1=I'd Rather Be Blind
TTITLE2=Boogie Trap
TTITLE3=Leave Me Alone On My Own
TTITLE4=Boogie Woogie Medley
TTITLE5=Motorride
TTITLE6=Saint Louis Blues (instrumental)
TTITLE7=CC Rider
TTITLE8=Crying Time
TTITLE9=Low Down Dog
TTITLE10=Brabantse Boogie
TTITLE11=Stagger Lee
TTITLE12=Take Out Some Insurance
TTITLE13=Boogie Woogie Pour Adeline
EXTD=
EXTT0=
EXTT1=
EXTT2=
EXTT3=
EXTT4=
EXTT5=
EXTT6=
EXTT7=
EXTT8=
EXTT9=
EXTT10=
EXTT11=
EXTT12=
EXTT13=
PLAYORDER=
